<svg xmlns="http://www.w3.org/2000/svg" viewBox="0 0 110 46"><defs><style>.cls-1{isolation:isolate;}.cls-2{fill:#ed1c24;}.cls-3{fill:#296e48;}.cls-4{fill:#f99d1c;}.cls-5{mix-blend-mode:multiply;}.cls-6{fill:#f15b25;}.cls-7{fill:#267f64;}.cls-8{fill:#231f20;}</style></defs><g class="cls-1"><g id="Isolation_Mode" data-name="Isolation Mode"><path class="cls-2" d="M15.79,20.72H36.22a1.32,1.32,0,0,0,0-2.64H15.79a1.32,1.32,0,1,0,0,2.64Z"/><path class="cls-3" d="M19.94,28.64H33.32a1.32,1.32,0,0,0,0-2.64H19.94a1.32,1.32,0,0,0,0,2.64Z"/><path class="cls-4" d="M18,24.57H34.82a1.32,1.32,0,1,0,0-2.64H18a1.32,1.32,0,0,0,0,2.64Z"/><g class="cls-5"><path class="cls-6" d="M15.57,20.7l19.07,3.84a1.32,1.32,0,0,0,1.52-1.08,1.3,1.3,0,0,0-1.07-1.52L16,18.1a1.32,1.32,0,0,0-.44,2.6Z"/></g><g class="cls-5"><path class="cls-7" d="M17.82,24.55l15.36,4.06a1.32,1.32,0,0,0,.44-2.6L18.26,22A1.31,1.31,0,0,0,16.74,23,1.33,1.33,0,0,0,17.82,24.55Z"/></g><circle class="cls-8" cx="23.01" cy="31.43" r="2.11"/><circle class="cls-8" cx="30.33" cy="31.43" r="2.11"/><path class="cls-8" d="M5.41,15.29h8.4a1.32,1.32,0,1,0,0-2.64H5.41a1.32,1.32,0,0,0,0,2.64Z"/><path class="cls-8" d="M12.93,14.84l1.58,1.84a1.32,1.32,0,0,0,2-1.74L14.92,13.1a1.32,1.32,0,0,0-2,1.74Z"/><path class="cls-8" d="M46.33,30.47A1.5,1.5,0,0,1,44.88,32a1.66,1.66,0,0,1-1.25-.64L37.84,25.1a1.58,1.58,0,0,1-.42-1,1.46,1.46,0,0,1,.44-1l5.49-6.42a1.39,1.39,0,0,1,1.14-.51,1.44,1.44,0,0,1,1.4,1.46,1.57,1.57,0,0,1-.46,1l-4.59,5.4,5.1,5.47A1.34,1.34,0,0,1,46.33,30.47Z"/><path class="cls-8" d="M58.87,25.35v.07A1.56,1.56,0,0,1,57.16,27H50.65a3,3,0,0,0,3.21,2.26,4.53,4.53,0,0,0,2.38-.67,1.3,1.3,0,0,1,.66-.2,1.23,1.23,0,0,1,1.27,1.24,1.43,1.43,0,0,1-.78,1.25A6.51,6.51,0,0,1,53.77,32a6,6,0,0,1-6.26-6,5.84,5.84,0,0,1,5.93-6A5.24,5.24,0,0,1,58.87,25.35Zm-8.22-.53h5.19a2.31,2.31,0,0,0-2.47-2.31A2.78,2.78,0,0,0,50.65,24.82Z"/><path class="cls-8" d="M58.87,35.9a1.35,1.35,0,0,1-.95-1.27,1.29,1.29,0,0,1,1.32-1.34l.3,0c1.15,0,1.75-.44,1.75-2.05v-9.7a1.56,1.56,0,1,1,3.12,0V31.81a4.22,4.22,0,0,1-5.54,4.09ZM64.8,16.09a1.93,1.93,0,0,1-2,1.87,1.88,1.88,0,1,1,0-3.76A1.93,1.93,0,0,1,64.8,16.09Z"/><path class="cls-8" d="M78.21,25.35v.07A1.56,1.56,0,0,1,76.5,27H70a3,3,0,0,0,3.21,2.26,4.5,4.5,0,0,0,2.38-.67,1.33,1.33,0,0,1,.67-.2,1.23,1.23,0,0,1,1.27,1.24,1.42,1.42,0,0,1-.79,1.25A6.49,6.49,0,0,1,73.11,32a6,6,0,0,1-6.26-6,5.84,5.84,0,0,1,5.94-6A5.24,5.24,0,0,1,78.21,25.35ZM70,24.82h5.2a2.32,2.32,0,0,0-2.47-2.31A2.78,2.78,0,0,0,70,24.82Z"/><path class="cls-8" d="M88.23,30.4a1.32,1.32,0,0,1-.79,1.25,3.92,3.92,0,0,1-1.61.3c-3,0-4.57-1.5-4.57-4.29V22.88h-.65a1.32,1.32,0,1,1,0-2.63h.65V18.68a1.56,1.56,0,1,1,3.11,0v1.57h2.1a1.32,1.32,0,1,1,0,2.63h-2.1v4.5c0,1.27.6,1.78,2.06,1.78l.44,0A1.23,1.23,0,0,1,88.23,30.4Z"/><path class="cls-8" d="M93.74,16.09a2,2,0,1,1-2-1.89A1.93,1.93,0,0,1,93.74,16.09ZM90.23,30.36v-8.8a1.56,1.56,0,1,1,3.12,0v8.8a1.56,1.56,0,1,1-3.12,0Z"/><path class="cls-8" d="M106,24.89v5.49a1.48,1.48,0,0,1-1.5,1.55,1.5,1.5,0,0,1-1.5-1.2A4.77,4.77,0,0,1,99.68,32c-2.36,0-4-1.38-4-3.41s1.64-3.33,4.32-3.33h2.86V24.7a1.88,1.88,0,0,0-2.15-2,3.22,3.22,0,0,0-2.19.85,1.45,1.45,0,0,1-.93.37,1.29,1.29,0,0,1-1.33-1.27A1.76,1.76,0,0,1,97,21.4,6.09,6.09,0,0,1,101.08,20C104.22,20,106,21.77,106,24.89Zm-3.11,2.51v-.13h-2.45c-1,0-1.59.39-1.59,1.15s.62,1.25,1.64,1.25A2.29,2.29,0,0,0,102.91,27.4Z"/></g></g></svg>